<svg xmlns="http://www.w3.org/2000/svg" xmlns:xlink="http://www.w3.org/1999/xlink" width="500" zoomAndPan="magnify" viewBox="0 0 375 374.999991" height="500" preserveAspectRatio="xMidYMid meet" version="1.0"><defs><g/></defs><g fill="#1aa1b8" fill-opacity="1"><g transform="translate(93.685941, 236.189624)"><g><path d="M 2.523438 0 L 30.300781 0 C 22.472656 -12.625 19.316406 -23.484375 19.316406 -32.699219 C 19.316406 -60.351562 47.21875 -72.847656 58.582031 -72.847656 C 60.980469 -72.847656 63.757812 -72.34375 63.757812 -69.441406 C 63.757812 -61.105469 35.855469 -47.472656 35.855469 -22.726562 C 35.855469 -14.644531 38.761719 -6.816406 43.054688 0 L 74.742188 0 C 66.914062 -12.625 63.886719 -23.484375 63.886719 -32.699219 C 63.886719 -60.351562 91.660156 -72.847656 103.023438 -72.847656 C 105.421875 -72.847656 108.199219 -72.34375 108.199219 -69.441406 C 108.199219 -61.105469 80.296875 -47.472656 80.296875 -22.726562 C 80.296875 -16.035156 82.316406 -8.460938 87.496094 0 L 123.351562 0 C 117.417969 -14.265625 114.765625 -30.175781 114.765625 -45.832031 C 114.765625 -63.253906 118.046875 -80.550781 123.351562 -95.195312 C 119.183594 -96.078125 112.367188 -96.710938 106.683594 -96.710938 C 91.28125 -96.710938 76.132812 -86.863281 72.21875 -71.710938 L 69.1875 -71.710938 C 70.449219 -95.953125 46.839844 -96.710938 28.28125 -96.710938 C 19.570312 -96.710938 11.363281 -96.207031 2.523438 -95.195312 C 8.460938 -80.929688 11.109375 -65.019531 11.109375 -49.367188 C 11.109375 -31.941406 7.828125 -14.644531 2.523438 0 Z M 2.523438 0 "/></g></g></g><g fill="#1aa1b8" fill-opacity="1"><g transform="translate(219.679475, 236.189624)"><g><path d="M 2.523438 0 L 60.980469 0 L 60.980469 -30.425781 C 56.4375 -27.902344 37.496094 -21.84375 25.125 -21.84375 C 21.589844 -21.84375 14.394531 -22.347656 14.394531 -27.144531 C 14.394531 -36.109375 34.847656 -58.203125 34.847656 -80.171875 C 34.847656 -85.222656 33.835938 -90.273438 31.058594 -95.195312 L 2.523438 -95.195312 C 8.460938 -80.804688 10.730469 -67.292969 10.730469 -54.039062 C 10.730469 -36.234375 6.816406 -18.8125 2.523438 0 Z M 2.523438 0 "/></g></g></g></svg>